HIERARCHY
ROOT Hips
{
	OFFSET 0.000000 121.760803 0.000000
	CHANNELS 6 Xposition Yposition Zposition Xrotation Yrotation Zrotation 
	JOINT Spine
	{
		OFFSET 0.072000 7.257294 -0.789700
		CHANNELS 3 Xrotation Yrotation Zrotation
		JOINT Spine1
		{
			OFFSET 0.000000 12.508769 -0.658067
			CHANNELS 3 Xrotation Yrotation Zrotation
			JOINT Spine1_split
			{
				OFFSET 0.000000 12.508769 -0.658067
				CHANNELS 3 Xrotation Yrotation Zrotation
				JOINT Spine2
				{
					OFFSET 0.000000 12.508769 -0.658067
					CHANNELS 3 Xrotation Yrotation Zrotation
					JOINT Neck
					{
						OFFSET 0.000000 14.033295 7.520400
						CHANNELS 3 Xrotation Yrotation Zrotation
						JOINT Head
						{
							OFFSET 0.000000 8.198502 5.703100
							CHANNELS 3 Xrotation Yrotation Zrotation
							JOINT HeadTop_End
							{
								OFFSET 0.000000 17.760803 13.332701
								CHANNELS 3 Xrotation Yrotation Zrotation
								End Site
								{
									OFFSET 0.000000 0.000000 0.000000
								}
							}
						}
					}
					JOINT LeftShoulder
					{
						OFFSET 6.292450 5.785301 -0.669000
						CHANNELS 3 Xrotation Yrotation Zrotation
						JOINT LeftShoulder_split
						{
							OFFSET 6.292450 5.785301 -0.669000
							CHANNELS 3 Xrotation Yrotation Zrotation
							JOINT LeftArm
							{
								OFFSET 13.907140 -6.093903 1.965100
								CHANNELS 3 Xrotation Yrotation Zrotation
								JOINT LeftForeArm
								{
									OFFSET 34.140198 0.000000 0.000000
									CHANNELS 3 Xrotation Yrotation Zrotation
									JOINT LeftHand
									{
										OFFSET 40.960209 0.000000 0.000000
										CHANNELS 3 Xrotation Yrotation Zrotation
										JOINT LeftHandThumb1
										{
											OFFSET 10.006996 -7.170425 9.573125
											CHANNELS 3 Xrotation Yrotation Zrotation
											JOINT LeftHandThumb2
											{
												OFFSET 1.835007 -1.059448 1.059443
												CHANNELS 3 Xrotation Yrotation Zrotation
												JOINT LeftHandThumb3
												{
													OFFSET 2.112267 -1.219513 1.219518
													CHANNELS 3 Xrotation Yrotation Zrotation
													JOINT LeftHandThumb4
													{
														OFFSET 4.843811 -2.796570 2.796576
														CHANNELS 3 Xrotation Yrotation Zrotation
														End Site
														{
															OFFSET 0.000000 0.000000 0.000000
														}
													}
												}
											}
										}
										JOINT LeftHandIndex1
										{
											OFFSET 18.389847 -0.922348 4.596882
											CHANNELS 3 Xrotation Yrotation Zrotation
											JOINT LeftHandIndex2
											{
												OFFSET 4.711273 0.000000 0.000000
												CHANNELS 3 Xrotation Yrotation Zrotation
												JOINT LeftHandIndex3
												{
													OFFSET 2.886131 0.000000 0.000000
													CHANNELS 3 Xrotation Yrotation Zrotation
													JOINT LeftHandIndex4
													{
														OFFSET 6.145912 0.000000 0.000000
														CHANNELS 3 Xrotation Yrotation Zrotation
														End Site
														{
															OFFSET 0.000000 0.000000 0.000000
														}
													}
												}
											}
										}
										JOINT LeftHandMiddle1
										{
											OFFSET 18.013008 0.000000 0.000000
											CHANNELS 3 Xrotation Yrotation Zrotation
											JOINT LeftHandMiddle2
											{
												OFFSET 4.946693 0.000000 0.000000
												CHANNELS 3 Xrotation Yrotation Zrotation
												JOINT LeftHandMiddle3
												{
													OFFSET 3.342232 0.000000 0.000000
													CHANNELS 3 Xrotation Yrotation Zrotation
													JOINT LeftHandMiddle4
													{
														OFFSET 4.461754 0.000000 0.000000
														CHANNELS 3 Xrotation Yrotation Zrotation
														End Site
														{
															OFFSET 0.000000 0.000000 0.000000
														}
													}
												}
											}
										}
										JOINT LeftHandRing1
										{
											OFFSET 15.849892 -0.102921 -4.126150
											CHANNELS 3 Xrotation Yrotation Zrotation
											JOINT LeftHandRing2
											{
												OFFSET 3.527054 0.000000 0.000000
												CHANNELS 3 Xrotation Yrotation Zrotation
												JOINT LeftHandRing3
												{
													OFFSET 2.961098 0.000000 0.000000
													CHANNELS 3 Xrotation Yrotation Zrotation
													JOINT LeftHandRing4
													{
														OFFSET 4.927200 0.000000 0.000000
														CHANNELS 3 Xrotation Yrotation Zrotation
														End Site
														{
															OFFSET 0.000000 0.000000 0.000000
														}
													}
												}
											}
										}
										JOINT LeftHandPinky1
										{
											OFFSET 12.791824 -0.832031 -6.799156
											CHANNELS 3 Xrotation Yrotation Zrotation
											JOINT LeftHandPinky2
											{
												OFFSET 3.327133 0.000000 0.000000
												CHANNELS 3 Xrotation Yrotation Zrotation
												JOINT LeftHandPinky3
												{
													OFFSET 3.014900 0.000000 0.000000
													CHANNELS 3 Xrotation Yrotation Zrotation
													JOINT LeftHandPinky4
													{
														OFFSET 5.847786 0.000000 0.000000
														CHANNELS 3 Xrotation Yrotation Zrotation
														End Site
														{
															OFFSET 0.000000 0.000000 0.000000
														}
													}
												}
											}
										}
									}
								}
							}
						}
					}
					JOINT RightShoulder
					{
						OFFSET -6.292450 5.785301 -0.669000
						CHANNELS 3 Xrotation Yrotation Zrotation
						JOINT RightShoulder_split
						{
							OFFSET -6.292450 5.785301 -0.669000
							CHANNELS 3 Xrotation Yrotation Zrotation
							JOINT RightArm
							{
								OFFSET -13.907140 -6.093903 1.965100
								CHANNELS 3 Xrotation Yrotation Zrotation
								JOINT RightForeArm
								{
									OFFSET -34.140198 0.000000 0.000000
									CHANNELS 3 Xrotation Yrotation Zrotation
									JOINT RightHand
									{
										OFFSET -40.960209 0.000000 0.000000
										CHANNELS 3 Xrotation Yrotation Zrotation
										JOINT RightHandThumb1
										{
											OFFSET -10.007050 -7.170456 9.573117
											CHANNELS 3 Xrotation Yrotation Zrotation
											JOINT RightHandThumb2
											{
												OFFSET -1.835007 -1.059448 1.059443
												CHANNELS 3 Xrotation Yrotation Zrotation
												JOINT RightHandThumb3
												{
													OFFSET -2.112267 -1.219513 1.219518
													CHANNELS 3 Xrotation Yrotation Zrotation
													JOINT RightHandThumb4
													{
														OFFSET -4.843834 -2.796585 2.796590
														CHANNELS 3 Xrotation Yrotation Zrotation
														End Site
														{
															OFFSET 0.000000 0.000000 0.000000
														}
													}
												}
											}
										}
										JOINT RightHandIndex1
										{
											OFFSET -18.389870 -0.922424 4.596786
											CHANNELS 3 Xrotation Yrotation Zrotation
											JOINT RightHandIndex2
											{
												OFFSET -4.711273 0.000000 0.000000
												CHANNELS 3 Xrotation Yrotation Zrotation
												JOINT RightHandIndex3
												{
													OFFSET -2.886131 0.000000 0.000000
													CHANNELS 3 Xrotation Yrotation Zrotation
													JOINT RightHandIndex4
													{
														OFFSET -6.145920 0.000000 0.000000
														CHANNELS 3 Xrotation Yrotation Zrotation
														End Site
														{
															OFFSET 0.000000 0.000000 0.000000
														}
													}
												}
											}
										}
										JOINT RightHandMiddle1
										{
											OFFSET -18.013008 0.000000 0.000000
											CHANNELS 3 Xrotation Yrotation Zrotation
											JOINT RightHandMiddle2
											{
												OFFSET -4.946693 0.000000 0.000000
												CHANNELS 3 Xrotation Yrotation Zrotation
												JOINT RightHandMiddle3
												{
													OFFSET -3.342232 0.000000 0.000000
													CHANNELS 3 Xrotation Yrotation Zrotation
													JOINT RightHandMiddle4
													{
														OFFSET -4.461754 0.000000 0.000000
														CHANNELS 3 Xrotation Yrotation Zrotation
														End Site
														{
															OFFSET 0.000000 0.000000 0.000000
														}
													}
												}
											}
										}
										JOINT RightHandRing1
										{
											OFFSET -15.849876 -0.102936 -4.126237
											CHANNELS 3 Xrotation Yrotation Zrotation
											JOINT RightHandRing2
											{
												OFFSET -3.527054 0.000000 0.000000
												CHANNELS 3 Xrotation Yrotation Zrotation
												JOINT RightHandRing3
												{
													OFFSET -2.961098 0.000000 0.000000
													CHANNELS 3 Xrotation Yrotation Zrotation
													JOINT RightHandRing4
													{
														OFFSET -4.927200 0.000000 0.000000
														CHANNELS 3 Xrotation Yrotation Zrotation
														End Site
														{
															OFFSET 0.000000 0.000000 0.000000
														}
													}
												}
											}
										}
										JOINT RightHandPinky1
										{
											OFFSET -12.791786 -0.832077 -6.799222
											CHANNELS 3 Xrotation Yrotation Zrotation
											JOINT RightHandPinky2
											{
												OFFSET -3.327133 0.000000 0.000000
												CHANNELS 3 Xrotation Yrotation Zrotation
												JOINT RightHandPinky3
												{
													OFFSET -3.014900 0.000000 0.000000
													CHANNELS 3 Xrotation Yrotation Zrotation
													JOINT RightHandPinky4
													{
														OFFSET -5.847786 0.000000 0.000000
														CHANNELS 3 Xrotation Yrotation Zrotation
														End Site
														{
															OFFSET 0.000000 0.000000 0.000000
														}
													}
												}
											}
										}
									}
								}
							}
						}
					}
				}
			}
		}
	}
	JOINT LeftUpLeg
	{
		OFFSET 13.026900 -6.336304 -1.092800
		CHANNELS 3 Xrotation Yrotation Zrotation
		JOINT LeftLeg
		{
			OFFSET 0.524474 -46.096886 9.782700
			CHANNELS 3 Xrotation Yrotation Zrotation
			JOINT LeftFoot
			{
				OFFSET -0.524474 -53.427422 -12.948200
				CHANNELS 3 Xrotation Yrotation Zrotation
				JOINT LeftToeBase
				{
					OFFSET 0.192200 -14.009700 16.364100
					CHANNELS 3 Xrotation Yrotation Zrotation
					JOINT LeftToe_End
					{
						OFFSET -1.784700 -0.561700 9.474800
						CHANNELS 3 Xrotation Yrotation Zrotation
						End Site
						{
							OFFSET 0.000000 0.000000 0.000000
						}
					}
				}
			}
		}
	}
	JOINT RightUpLeg
	{
		OFFSET -12.883000 -6.336304 -1.092800
		CHANNELS 3 Xrotation Yrotation Zrotation
		JOINT RightLeg
		{
			OFFSET -0.524587 -46.096825 9.782800
			CHANNELS 3 Xrotation Yrotation Zrotation
			JOINT RightFoot
			{
				OFFSET 0.524587 -53.427383 -12.948300
				CHANNELS 3 Xrotation Yrotation Zrotation
				JOINT RightToeBase
				{
					OFFSET -0.192200 -14.009700 16.364100
					CHANNELS 3 Xrotation Yrotation Zrotation
					JOINT RightToe_End
					{
						OFFSET 1.784700 -0.561700 9.474800
						CHANNELS 3 Xrotation Yrotation Zrotation
						End Site
						{
							OFFSET 0.000000 0.000000 0.000000
						}
					}
				}
			}
		}
	}
}
MOTION
Frames: 4
Frame Time: 0.016667
-2.562408 115.290794 4.366413 -6.526788 7.460474 -1.236959 2.705189 1.594954 3.239156 2.229757 0.462799 2.709335 0.000000 0.000000 0.000000 1.815967 0.462785 2.663380 12.069589 -2.397794 -0.979292 1.367185 -8.878461 -6.544919 0.000001 0.000000 -0.000000 0.980234 -16.729754 -12.817468 0.000000 0.000000 0.000000 1.380167 -1.285204 -71.138695 0.000000 -0.000000 -0.000014 -34.595523 -2.769056 -5.684775 -0.945041 2.085481 4.986307 11.826386 25.404989 17.117649 -13.812406 3.560482 9.013180 0.000000 -0.000002 -0.000005 0.084263 -0.924054 -8.185785 0.267785 1.752618 -17.372888 0.057679 0.820894 -8.037368 0.000000 0.000000 0.000000 -0.073349 2.742592 -16.488408 0.269690 1.758706 -17.435296 0.301531 1.857013 -18.444496 0.000003 -0.000003 -0.000000 0.084981 3.528585 -21.560638 0.386263 2.093837 -20.901991 0.282936 1.800321 -17.861740 -0.000000 -0.000003 0.000001 0.961159 5.610191 -27.583174 0.269776 1.758977 -17.437953 0.242696 1.670356 -16.532890 0.000000 -0.000001 0.000005 0.966137 8.437344 16.887352 0.000000 0.000000 0.000000 28.204744 8.686315 58.059750 -0.000004 3.688149 -0.000014 -18.173159 -1.917481 9.747769 -22.530620 4.903188 4.908374 9.518478 -27.760670 -21.071079 5.457339 -23.437456 -6.234880 -0.000001 -0.000002 -0.000004 1.062307 -0.350881 19.899454 1.041862 -2.937732 39.046993 0.321175 -1.701141 21.381528 0.000000 -0.000001 -0.000001 0.380996 -4.016467 23.477882 1.260456 -3.188023 43.136545 0.727005 -2.500575 32.417587 0.000001 0.000001 0.000001 -0.717282 -1.494732 23.600429 0.643370 -2.363855 30.447098 0.567368 -2.229623 28.550701 -0.000002 -0.000003 0.000001 1.085911 -5.686139 22.733450 0.336826 -1.740588 21.902859 0.310216 -1.672888 21.009295 -0.000000 -0.000001 -0.000001 -16.235139 15.331956 12.573089 22.858741 0.945768 4.676269 -2.526496 -12.243290 -11.076328 -5.376458 0.000020 -0.000000 -0.000000 0.000001 0.000000 1.212487 -9.936776 5.022254 19.118789 -9.094360 -6.522668 -12.657742 -16.516378 4.837733 -6.948363 -0.000008 -0.000003 -0.000000 0.000000 0.000000 
-2.499903 115.399818 4.338503 -6.289166 6.924353 -1.313664 2.681210 1.570151 3.221377 2.274833 0.425904 2.707982 0.000000 0.000000 0.000000 1.839811 0.425763 2.655626 11.829165 -2.244499 -0.934816 1.105652 -8.174212 -6.247968 0.000000 -0.000000 -0.000000 0.974910 -16.800879 -12.868817 0.000000 0.000000 0.000000 1.435869 -0.692807 -71.334291 0.000000 -0.000002 -0.000017 -33.995580 -2.404732 -5.539999 -0.740809 2.177759 4.903581 11.791452 25.381051 17.236249 -13.838947 3.597889 9.036811 -0.000001 -0.000000 -0.000001 0.101976 -0.894343 -8.243459 0.267743 1.752491 -17.371591 0.057653 0.820765 -8.036132 0.000001 -0.000000 0.000002 -0.055500 2.807224 -16.539180 0.269559 1.758272 -17.430913 0.301380 1.856548 -18.439771 -0.000001 0.000001 0.000000 0.092930 3.552170 -21.630313 0.386228 2.093767 -20.901233 0.282882 1.800154 -17.860094 -0.000001 0.000002 0.000000 0.984302 5.638674 -27.641094 0.269935 1.759476 -17.443106 0.242836 1.670840 -16.537824 -0.000002 -0.000002 -0.000001 0.974203 8.465968 16.811911 0.000000 0.000000 0.000000 28.086911 7.872544 58.190425 -0.000010 3.162835 -0.000004 -16.303849 -3.021911 9.938315 -22.319994 4.616048 2.964459 9.813034 -27.713938 -20.187917 4.764095 -23.407130 -6.786982 0.000000 -0.000000 0.000001 1.148885 -0.266914 17.459130 0.984710 -2.865935 37.918225 0.298741 -1.642726 20.612743 -0.000001 -0.000001 -0.000000 0.390233 -4.036149 21.065237 1.179160 -3.099100 41.653878 0.685713 -2.434403 31.458537 0.000001 -0.000002 0.000000 -0.617051 -1.495119 21.700923 0.595697 -2.280872 29.270516 0.522065 -2.144328 27.363568 0.000002 0.000002 0.000002 1.015400 -5.750886 19.977499 0.318386 -1.694000 21.287429 0.292531 -1.626122 20.394906 -0.000000 0.000002 0.000002 -16.177347 15.368397 12.532067 22.602882 0.795810 4.601526 -2.452833 -11.578459 -11.003207 -5.365365 -0.000007 -0.000002 0.000000 0.000000 0.000000 1.016343 -9.946246 4.878173 18.882247 -9.113094 -6.460826 -12.476734 -15.916356 4.878706 -6.952393 0.000000 -0.000002 -0.000000 0.000000 -0.000000 
-2.443875 115.503792 4.299189 -6.051722 6.345644 -1.407574 2.661074 1.554315 3.208738 2.323627 0.402820 2.709165 0.000000 0.000000 0.000000 1.868223 0.402407 2.651737 11.576150 -2.092932 -0.883112 0.830126 -7.486982 -5.921342 -0.000001 -0.000000 -0.000000 0.973021 -16.881876 -12.893321 0.000000 0.000000 0.000000 1.489841 -0.193284 -71.539108 0.000001 0.000002 -0.000003 -33.441412 -2.085264 -5.380698 -0.610933 2.223750 4.844136 11.771038 25.366858 17.305763 -13.852456 3.618602 9.046408 -0.000003 -0.000000 -0.000002 0.109642 -0.882555 -8.256119 0.267705 1.752368 -17.370348 0.057636 0.820638 -8.034930 0.000002 -0.000000 0.000001 -0.045304 2.842768 -16.552347 0.269400 1.757778 -17.425699 0.301204 1.856019 -18.434344 0.000001 -0.000001 0.000002 0.096608 3.562972 -21.660799 0.386219 2.093742 -20.900977 0.282856 1.800053 -17.859003 -0.000001 0.000000 0.000001 0.994178 5.653274 -27.663456 0.269994 1.759663 -17.445017 0.242888 1.671009 -16.539573 0.000002 0.000001 0.000000 0.974404 8.574771 16.795626 0.000000 0.000000 0.000000 27.644526 6.868316 58.342117 0.000002 2.537497 0.000002 -14.582058 -4.211714 10.110755 -21.901213 4.412103 1.458867 9.977212 -27.585618 -19.715645 3.995936 -23.458932 -7.260560 0.000001 0.000001 -0.000004 1.225520 -0.253445 15.752081 0.931941 -2.796955 36.850021 0.278564 -1.588027 19.896430 0.000001 -0.000001 0.000001 0.391770 -4.052732 19.475835 1.103367 -3.011857 40.232068 0.647583 -2.371002 30.548981 -0.000000 0.000000 0.000001 -0.553192 -1.507922 20.499312 0.554146 -2.205149 28.208630 0.482759 -2.066652 26.293771 -0.000001 0.000001 0.000002 0.940684 -5.715199 18.308476 0.302343 -1.652250 20.737762 0.277141 -1.584138 19.845519 0.000000 -0.000002 -0.000003 -16.131812 15.401429 12.507169 22.363610 0.631535 4.538119 -2.386662 -10.863175 -10.923849 -5.353486 -0.000008 -0.000001 0.000000 0.000001 0.000000 0.804893 -9.951758 4.743821 18.656076 -9.135161 -6.385689 -12.294215 -15.277685 4.910315 -6.960359 0.000005 -0.000000 0.000000 0.000000 -0.000000 
-2.394824 115.600098 4.249974 -5.817569 5.735928 -1.519573 2.644249 1.544469 3.202542 2.374961 0.388697 2.715269 0.000000 0.000000 0.000000 1.900021 0.387847 2.652639 11.317115 -1.943500 -0.825331 0.529279 -6.811788 -5.583145 0.000000 -0.000000 0.000000 0.974776 -16.968719 -12.889548 0.000000 0.000000 0.000000 1.560686 0.185206 -71.747811 -0.000001 0.000002 0.000006 -32.970604 -1.827783 -5.223737 -0.552297 2.228801 4.808841 11.764090 25.361985 17.329353 -13.854438 3.624071 9.044350 0.000003 0.000001 0.000002 0.108348 -0.885832 -8.232174 0.267672 1.752257 -17.369226 0.057622 0.820535 -8.033871 0.000001 0.000000 -0.000003 -0.041768 2.853408 -16.534406 0.269275 1.757366 -17.421557 0.301068 1.855609 -18.430125 0.000000 0.000000 0.000001 0.096941 3.563569 -21.656010 0.386230 2.093787 -20.901354 0.282846 1.800023 -17.858773 0.000000 -0.000000 -0.000001 0.994147 5.654194 -27.655631 0.269983 1.759632 -17.444640 0.242875 1.670961 -16.539079 -0.000002 -0.000003 0.000001 0.968010 8.730540 16.828620 0.000000 0.000000 0.000000 26.972492 5.818294 58.456119 -0.000002 1.888792 -0.000011 -13.025002 -5.397800 10.195372 -21.244173 4.286138 0.432273 10.018521 -27.381878 -19.635725 3.177365 -23.577881 -7.636052 0.000000 -0.000000 -0.000004 1.298119 -0.326187 14.800250 0.883094 -2.730622 35.836923 0.260290 -1.536695 19.227030 0.000000 0.000000 0.000001 0.397410 -4.079444 18.748821 1.034161 -2.928217 38.896486 0.613460 -2.312275 29.713918 0.000000 0.000000 -0.000001 -0.516336 -1.548217 20.026352 0.518659 -2.137745 27.272443 0.449365 -1.997710 25.352224 -0.000001 0.000001 0.000001 0.884376 -5.600505 17.801954 0.288132 -1.614253 20.239336 0.263510 -1.545878 19.346571 0.000000 -0.000002 -0.000001 -16.103484 15.431974 12.503226 22.148311 0.458687 4.487081 -2.333583 -10.117463 -10.839596 -5.341524 0.000006 0.000001 0.000000 -0.000002 0.000000 0.582037 -9.951676 4.624653 18.444075 -9.160694 -6.297347 -12.113761 -14.613714 4.931326 -6.971398 -0.000008 -0.000003 0.000000 0.000000 -0.000000 
